<?xml version="1.0" encoding="UTF-8" standalone="no"?>
<!DOCTYPE svg PUBLIC "-//W3C//DTD SVG 1.1//EN"
 "http://www.w3.org/Graphics/SVG/1.1/DTD/svg11.dtd">
<!-- Generated by graphviz version 2.47.0 (20210316.0004)
 -->
<!-- Title: dbml Pages: 1 -->
<svg width="2522pt" height="1176pt"
 viewBox="0.00 0.00 2521.58 1176.35" xmlns="http://www.w3.org/2000/svg" xmlns:xlink="http://www.w3.org/1999/xlink">
<g id="graph0" class="graph" transform="scale(1 1) rotate(0) translate(4 1172.35)">
<title>dbml</title>
<!-- slot_status -->
<g id="slot_status" class="node">
<title>slot_status</title>
<ellipse fill="none" stroke="black" stroke-width="0" cx="1510.26" cy="-214.96" rx="214.01" ry="214.92"/>
<polygon fill="#29235c" stroke="transparent" points="1361.26,-304.96 1361.26,-364.96 1660.26,-364.96 1660.26,-304.96 1361.26,-304.96"/>
<polygon fill="none" stroke="#29235c" points="1361.26,-304.96 1361.26,-364.96 1660.26,-364.96 1660.26,-304.96 1361.26,-304.96"/>
<text text-anchor="start" x="1372.04" y="-326.16" font-family="Helvetica,sans-Serif" font-weight="bold" font-size="32.00" fill="#ffffff"> &#160;&#160;&#160;&#160;&#160;&#160;slot_status &#160;&#160;&#160;&#160;&#160;&#160;</text>
<polygon fill="#e7e2dd" stroke="transparent" points="1361.26,-244.96 1361.26,-304.96 1660.26,-304.96 1660.26,-244.96 1361.26,-244.96"/>
<polygon fill="none" stroke="#29235c" points="1361.26,-244.96 1361.26,-304.96 1660.26,-304.96 1660.26,-244.96 1361.26,-244.96"/>
<text text-anchor="start" x="1431.62" y="-266.16" font-family="Helvetica,sans-Serif" font-style="italic" font-size="32.00" fill="#1d71b8"> &#160;&#160;&#160;empty &#160;&#160;&#160;</text>
<polygon fill="#e7e2dd" stroke="transparent" points="1361.26,-184.96 1361.26,-244.96 1660.26,-244.96 1660.26,-184.96 1361.26,-184.96"/>
<polygon fill="none" stroke="#29235c" points="1361.26,-184.96 1361.26,-244.96 1660.26,-244.96 1660.26,-184.96 1361.26,-184.96"/>
<text text-anchor="start" x="1402.27" y="-206.16" font-family="Helvetica,sans-Serif" font-style="italic" font-size="32.00" fill="#1d71b8"> &#160;&#160;&#160;scheduled &#160;&#160;&#160;</text>
<polygon fill="#e7e2dd" stroke="transparent" points="1361.26,-124.96 1361.26,-184.96 1660.26,-184.96 1660.26,-124.96 1361.26,-124.96"/>
<polygon fill="none" stroke="#29235c" points="1361.26,-124.96 1361.26,-184.96 1660.26,-184.96 1660.26,-124.96 1361.26,-124.96"/>
<text text-anchor="start" x="1401.39" y="-146.16" font-family="Helvetica,sans-Serif" font-style="italic" font-size="32.00" fill="#1d71b8"> &#160;&#160;&#160;completed &#160;&#160;&#160;</text>
<polygon fill="#e7e2dd" stroke="transparent" points="1361.26,-64.96 1361.26,-124.96 1660.26,-124.96 1660.26,-64.96 1361.26,-64.96"/>
<polygon fill="none" stroke="#29235c" points="1361.26,-64.96 1361.26,-124.96 1660.26,-124.96 1660.26,-64.96 1361.26,-64.96"/>
<text text-anchor="start" x="1411.16" y="-86.16" font-family="Helvetica,sans-Serif" font-style="italic" font-size="32.00" fill="#1d71b8"> &#160;&#160;&#160;canceled &#160;&#160;&#160;</text>
<polygon fill="none" stroke="#29235c" stroke-width="2" points="1359.76,-63.96 1359.76,-365.96 1660.76,-365.96 1660.76,-63.96 1359.76,-63.96"/>
</g>
<!-- cancellation_reason -->
<g id="cancellation_reason" class="node">
<title>cancellation_reason</title>
<ellipse fill="none" stroke="black" stroke-width="0" cx="2205.99" cy="-614.96" rx="307.68" ry="130.22"/>
<polygon fill="#29235c" stroke="transparent" points="1990.99,-644.96 1990.99,-704.96 2421.99,-704.96 2421.99,-644.96 1990.99,-644.96"/>
<polygon fill="none" stroke="#29235c" points="1990.99,-644.96 1990.99,-704.96 2421.99,-704.96 2421.99,-644.96 1990.99,-644.96"/>
<text text-anchor="start" x="2001.97" y="-666.16" font-family="Helvetica,sans-Serif" font-weight="bold" font-size="32.00" fill="#ffffff"> &#160;&#160;&#160;&#160;&#160;&#160;cancellation_reason &#160;&#160;&#160;&#160;&#160;&#160;</text>
<polygon fill="#e7e2dd" stroke="transparent" points="1990.99,-584.96 1990.99,-644.96 2421.99,-644.96 2421.99,-584.96 1990.99,-584.96"/>
<polygon fill="none" stroke="#29235c" points="1990.99,-584.96 1990.99,-644.96 2421.99,-644.96 2421.99,-584.96 1990.99,-584.96"/>
<text text-anchor="start" x="2027.75" y="-606.16" font-family="Helvetica,sans-Serif" font-style="italic" font-size="32.00" fill="#1d71b8"> &#160;&#160;&#160;canceled_by_doctor &#160;&#160;&#160;</text>
<polygon fill="#e7e2dd" stroke="transparent" points="1990.99,-524.96 1990.99,-584.96 2421.99,-584.96 2421.99,-524.96 1990.99,-524.96"/>
<polygon fill="none" stroke="#29235c" points="1990.99,-524.96 1990.99,-584.96 2421.99,-584.96 2421.99,-524.96 1990.99,-524.96"/>
<text text-anchor="start" x="2034.87" y="-546.16" font-family="Helvetica,sans-Serif" font-style="italic" font-size="32.00" fill="#1d71b8"> &#160;&#160;&#160;canceled_by_client &#160;&#160;&#160;</text>
<polygon fill="none" stroke="#29235c" stroke-width="2" points="1989.49,-523.96 1989.49,-705.96 2422.49,-705.96 2422.49,-523.96 1989.49,-523.96"/>
</g>
<!-- clients -->
<g id="clients" class="node">
<title>clients</title>
<ellipse fill="none" stroke="black" stroke-width="0" cx="304.06" cy="-377.96" rx="304.11" ry="257.27"/>
<polygon fill="#1d71b8" stroke="transparent" points="91.06,-497.96 91.06,-557.96 517.06,-557.96 517.06,-497.96 91.06,-497.96"/>
<polygon fill="none" stroke="#29235c" points="91.06,-497.96 91.06,-557.96 517.06,-557.96 517.06,-497.96 91.06,-497.96"/>
<text text-anchor="start" x="196.47" y="-519.16" font-family="Helvetica,sans-Serif" font-weight="bold" font-size="32.00" fill="#ffffff"> &#160;&#160;&#160;&#160;&#160;&#160;clients &#160;&#160;&#160;&#160;&#160;&#160;</text>
<polygon fill="#e7e2dd" stroke="transparent" points="91.06,-437.96 91.06,-497.96 517.06,-497.96 517.06,-437.96 91.06,-437.96"/>
<polygon fill="none" stroke="#29235c" points="91.06,-437.96 91.06,-497.96 517.06,-497.96 517.06,-437.96 91.06,-437.96"/>
<text text-anchor="start" x="102.06" y="-459.16" font-family="Helvetica,sans-Serif" font-weight="bold" font-size="32.00" fill="#29235c">id</text>
<text text-anchor="start" x="126.95" y="-459.16" font-family="Helvetica,sans-Serif" font-size="32.00" fill="#29235c"> &#160;&#160;&#160;</text>
<text text-anchor="start" x="408.25" y="-459.16" font-family="Helvetica,sans-Serif" font-style="italic" font-size="32.00" fill="#29235c">integer</text>
<polygon fill="#e7e2dd" stroke="transparent" points="91.06,-377.96 91.06,-437.96 517.06,-437.96 517.06,-377.96 91.06,-377.96"/>
<polygon fill="none" stroke="#29235c" points="91.06,-377.96 91.06,-437.96 517.06,-437.96 517.06,-377.96 91.06,-377.96"/>
<text text-anchor="start" x="101.6" y="-398.16" font-family="Helvetica,sans-Serif" font-size="32.00" fill="#29235c">first_name &#160;&#160;&#160;</text>
<text text-anchor="start" x="285.84" y="-399.16" font-family="Helvetica,sans-Serif" font-style="italic" font-size="32.00" fill="#29235c">varchar(255)</text>
<text text-anchor="start" x="467.18" y="-399.16" font-family="Helvetica,sans-Serif" font-size="32.00" fill="#29235c"> </text>
<text text-anchor="start" x="476.08" y="-399.16" font-family="Helvetica,sans-Serif" font-weight="bold" font-size="32.00" fill="#29235c">(!)</text>
<polygon fill="#e7e2dd" stroke="transparent" points="91.06,-317.96 91.06,-377.96 517.06,-377.96 517.06,-317.96 91.06,-317.96"/>
<polygon fill="none" stroke="#29235c" points="91.06,-317.96 91.06,-377.96 517.06,-377.96 517.06,-317.96 91.06,-317.96"/>
<text text-anchor="start" x="102.06" y="-338.16" font-family="Helvetica,sans-Serif" font-size="32.00" fill="#29235c">last_name &#160;&#160;&#160;</text>
<text text-anchor="start" x="285.84" y="-339.16" font-family="Helvetica,sans-Serif" font-style="italic" font-size="32.00" fill="#29235c">varchar(255)</text>
<text text-anchor="start" x="467.18" y="-339.16" font-family="Helvetica,sans-Serif" font-size="32.00" fill="#29235c"> </text>
<text text-anchor="start" x="476.08" y="-339.16" font-family="Helvetica,sans-Serif" font-weight="bold" font-size="32.00" fill="#29235c">(!)</text>
<polygon fill="#e7e2dd" stroke="transparent" points="91.06,-257.96 91.06,-317.96 517.06,-317.96 517.06,-257.96 91.06,-257.96"/>
<polygon fill="none" stroke="#29235c" points="91.06,-257.96 91.06,-317.96 517.06,-317.96 517.06,-257.96 91.06,-257.96"/>
<text text-anchor="start" x="102.06" y="-278.16" font-family="Helvetica,sans-Serif" font-size="32.00" fill="#29235c">patronym &#160;&#160;&#160;</text>
<text text-anchor="start" x="324.71" y="-279.16" font-family="Helvetica,sans-Serif" font-style="italic" font-size="32.00" fill="#29235c">varchar(255)</text>
<polygon fill="#e7e2dd" stroke="transparent" points="91.06,-197.96 91.06,-257.96 517.06,-257.96 517.06,-197.96 91.06,-197.96"/>
<polygon fill="none" stroke="#29235c" points="91.06,-197.96 91.06,-257.96 517.06,-257.96 517.06,-197.96 91.06,-197.96"/>
<text text-anchor="start" x="102.06" y="-218.16" font-family="Helvetica,sans-Serif" font-size="32.00" fill="#29235c">age &#160;&#160;&#160;</text>
<text text-anchor="start" x="408.25" y="-219.16" font-family="Helvetica,sans-Serif" font-style="italic" font-size="32.00" fill="#29235c">integer</text>
<polygon fill="none" stroke="#29235c" stroke-width="2" points="90.06,-196.96 90.06,-558.96 518.06,-558.96 518.06,-196.96 90.06,-196.96"/>
</g>
<!-- slots -->
<g id="slots" class="node">
<title>slots</title>
<ellipse fill="none" stroke="black" stroke-width="0" cx="883.11" cy="-644.96" rx="239" ry="342.48"/>
<polygon fill="#1d71b8" stroke="transparent" points="716.11,-824.96 716.11,-884.96 1050.11,-884.96 1050.11,-824.96 716.11,-824.96"/>
<polygon fill="none" stroke="#29235c" points="716.11,-824.96 716.11,-884.96 1050.11,-884.96 1050.11,-824.96 716.11,-824.96"/>
<text text-anchor="start" x="787.97" y="-846.16" font-family="Helvetica,sans-Serif" font-weight="bold" font-size="32.00" fill="#ffffff"> &#160;&#160;&#160;&#160;&#160;&#160;slots &#160;&#160;&#160;&#160;&#160;&#160;</text>
<polygon fill="#e7e2dd" stroke="transparent" points="716.11,-764.96 716.11,-824.96 1050.11,-824.96 1050.11,-764.96 716.11,-764.96"/>
<polygon fill="none" stroke="#29235c" points="716.11,-764.96 716.11,-824.96 1050.11,-824.96 1050.11,-764.96 716.11,-764.96"/>
<text text-anchor="start" x="727.11" y="-786.16" font-family="Helvetica,sans-Serif" font-weight="bold" font-size="32.00" fill="#29235c">id</text>
<text text-anchor="start" x="752" y="-786.16" font-family="Helvetica,sans-Serif" font-size="32.00" fill="#29235c"> &#160;&#160;&#160;</text>
<text text-anchor="start" x="941.31" y="-786.16" font-family="Helvetica,sans-Serif" font-style="italic" font-size="32.00" fill="#29235c">integer</text>
<polygon fill="#e7e2dd" stroke="transparent" points="716.11,-704.96 716.11,-764.96 1050.11,-764.96 1050.11,-704.96 716.11,-704.96"/>
<polygon fill="none" stroke="#29235c" points="716.11,-704.96 716.11,-764.96 1050.11,-764.96 1050.11,-704.96 716.11,-704.96"/>
<text text-anchor="start" x="727.11" y="-725.16" font-family="Helvetica,sans-Serif" font-size="32.00" fill="#29235c">doctor_id &#160;&#160;&#160;</text>
<text text-anchor="start" x="902.22" y="-726.16" font-family="Helvetica,sans-Serif" font-style="italic" font-size="32.00" fill="#29235c">integer</text>
<text text-anchor="start" x="1000.02" y="-726.16" font-family="Helvetica,sans-Serif" font-size="32.00" fill="#29235c"> </text>
<text text-anchor="start" x="1008.92" y="-726.16" font-family="Helvetica,sans-Serif" font-weight="bold" font-size="32.00" fill="#29235c">(!)</text>
<polygon fill="#e7e2dd" stroke="transparent" points="716.11,-644.96 716.11,-704.96 1050.11,-704.96 1050.11,-644.96 716.11,-644.96"/>
<polygon fill="none" stroke="#29235c" points="716.11,-644.96 716.11,-704.96 1050.11,-704.96 1050.11,-644.96 716.11,-644.96"/>
<text text-anchor="start" x="727.11" y="-665.16" font-family="Helvetica,sans-Serif" font-size="32.00" fill="#29235c">client_id &#160;&#160;&#160;</text>
<text text-anchor="start" x="941.31" y="-666.16" font-family="Helvetica,sans-Serif" font-style="italic" font-size="32.00" fill="#29235c">integer</text>
<polygon fill="#e7e2dd" stroke="transparent" points="716.11,-584.96 716.11,-644.96 1050.11,-644.96 1050.11,-584.96 716.11,-584.96"/>
<polygon fill="none" stroke="#29235c" points="716.11,-584.96 716.11,-644.96 1050.11,-644.96 1050.11,-584.96 716.11,-584.96"/>
<text text-anchor="start" x="727.11" y="-605.16" font-family="Helvetica,sans-Serif" font-size="32.00" fill="#29235c">date &#160;&#160;&#160;</text>
<text text-anchor="start" x="937.76" y="-606.16" font-family="Helvetica,sans-Serif" font-style="italic" font-size="32.00" fill="#29235c">date</text>
<text text-anchor="start" x="1000.02" y="-606.16" font-family="Helvetica,sans-Serif" font-size="32.00" fill="#29235c"> </text>
<text text-anchor="start" x="1008.92" y="-606.16" font-family="Helvetica,sans-Serif" font-weight="bold" font-size="32.00" fill="#29235c">(!)</text>
<polygon fill="#e7e2dd" stroke="transparent" points="716.11,-524.96 716.11,-584.96 1050.11,-584.96 1050.11,-524.96 716.11,-524.96"/>
<polygon fill="none" stroke="#29235c" points="716.11,-524.96 716.11,-584.96 1050.11,-584.96 1050.11,-524.96 716.11,-524.96"/>
<text text-anchor="start" x="727.11" y="-545.16" font-family="Helvetica,sans-Serif" font-size="32.00" fill="#29235c">start_time &#160;&#160;&#160;</text>
<text text-anchor="start" x="939.59" y="-546.16" font-family="Helvetica,sans-Serif" font-style="italic" font-size="32.00" fill="#29235c">time</text>
<text text-anchor="start" x="1000.02" y="-546.16" font-family="Helvetica,sans-Serif" font-size="32.00" fill="#29235c"> </text>
<text text-anchor="start" x="1008.92" y="-546.16" font-family="Helvetica,sans-Serif" font-weight="bold" font-size="32.00" fill="#29235c">(!)</text>
<polygon fill="#e7e2dd" stroke="transparent" points="716.11,-464.96 716.11,-524.96 1050.11,-524.96 1050.11,-464.96 716.11,-464.96"/>
<polygon fill="none" stroke="#29235c" points="716.11,-464.96 716.11,-524.96 1050.11,-524.96 1050.11,-464.96 716.11,-464.96"/>
<text text-anchor="start" x="727.11" y="-485.16" font-family="Helvetica,sans-Serif" font-size="32.00" fill="#29235c">duration &#160;&#160;&#160;</text>
<text text-anchor="start" x="896.91" y="-486.16" font-family="Helvetica,sans-Serif" font-style="italic" font-size="32.00" fill="#29235c">interval</text>
<text text-anchor="start" x="1000.02" y="-486.16" font-family="Helvetica,sans-Serif" font-size="32.00" fill="#29235c"> </text>
<text text-anchor="start" x="1008.92" y="-486.16" font-family="Helvetica,sans-Serif" font-weight="bold" font-size="32.00" fill="#29235c">(!)</text>
<polygon fill="#e7e2dd" stroke="transparent" points="716.11,-404.96 716.11,-464.96 1050.11,-464.96 1050.11,-404.96 716.11,-404.96"/>
<polygon fill="none" stroke="#29235c" points="716.11,-404.96 716.11,-464.96 1050.11,-464.96 1050.11,-404.96 716.11,-404.96"/>
<text text-anchor="start" x="726.65" y="-425.16" font-family="Helvetica,sans-Serif" font-size="32.00" fill="#29235c">status &#160;&#160;&#160;</text>
<text text-anchor="start" x="847.1" y="-426.16" font-family="Helvetica,sans-Serif" font-style="italic" font-size="32.00" fill="#29235c">slot_status</text>
<text text-anchor="start" x="1000.04" y="-426.16" font-family="Helvetica,sans-Serif" font-size="32.00" fill="#29235c"> </text>
<text text-anchor="start" x="1008.93" y="-426.16" font-family="Helvetica,sans-Serif" font-weight="bold" font-size="32.00" fill="#29235c">(!)</text>
<polygon fill="none" stroke="#29235c" stroke-width="2" points="715.11,-403.96 715.11,-885.96 1051.11,-885.96 1051.11,-403.96 715.11,-403.96"/>
</g>
<!-- clients&#45;&gt;slots -->
<!-- clients&#45;&gt;slots -->
<g id="edge6" class="edge">
<title>clients:e&#45;&gt;slots:w</title>
<path fill="none" stroke="#29235c" stroke-width="3" d="M518.06,-467.96C641.6,-467.96 591.07,-663.79 705.1,-674.5"/>
<polygon fill="#29235c" stroke="#29235c" stroke-width="3" points="704.97,-678 715.11,-674.96 705.28,-671.01 704.97,-678"/>
<text text-anchor="middle" x="708.89" y="-684.56" font-family="Helvetica,sans-Serif" font-size="32.00" fill="#29235c">*</text>
<text text-anchor="middle" x="509.16" y="-439.16" font-family="Helvetica,sans-Serif" font-size="32.00" fill="#29235c">1</text>
</g>
<!-- doctors -->
<g id="doctors" class="node">
<title>doctors</title>
<ellipse fill="none" stroke="black" stroke-width="0" cx="304.06" cy="-910.96" rx="304.11" ry="257.27"/>
<polygon fill="#1d71b8" stroke="transparent" points="91.06,-1030.96 91.06,-1090.96 517.06,-1090.96 517.06,-1030.96 91.06,-1030.96"/>
<polygon fill="none" stroke="#29235c" points="91.06,-1030.96 91.06,-1090.96 517.06,-1090.96 517.06,-1030.96 91.06,-1030.96"/>
<text text-anchor="start" x="189.35" y="-1052.16" font-family="Helvetica,sans-Serif" font-weight="bold" font-size="32.00" fill="#ffffff"> &#160;&#160;&#160;&#160;&#160;&#160;doctors &#160;&#160;&#160;&#160;&#160;&#160;</text>
<polygon fill="#e7e2dd" stroke="transparent" points="91.06,-970.96 91.06,-1030.96 517.06,-1030.96 517.06,-970.96 91.06,-970.96"/>
<polygon fill="none" stroke="#29235c" points="91.06,-970.96 91.06,-1030.96 517.06,-1030.96 517.06,-970.96 91.06,-970.96"/>
<text text-anchor="start" x="102.06" y="-992.16" font-family="Helvetica,sans-Serif" font-weight="bold" font-size="32.00" fill="#29235c">id</text>
<text text-anchor="start" x="126.95" y="-992.16" font-family="Helvetica,sans-Serif" font-size="32.00" fill="#29235c"> &#160;&#160;&#160;</text>
<text text-anchor="start" x="408.25" y="-992.16" font-family="Helvetica,sans-Serif" font-style="italic" font-size="32.00" fill="#29235c">integer</text>
<polygon fill="#e7e2dd" stroke="transparent" points="91.06,-910.96 91.06,-970.96 517.06,-970.96 517.06,-910.96 91.06,-910.96"/>
<polygon fill="none" stroke="#29235c" points="91.06,-910.96 91.06,-970.96 517.06,-970.96 517.06,-910.96 91.06,-910.96"/>
<text text-anchor="start" x="101.6" y="-931.16" font-family="Helvetica,sans-Serif" font-size="32.00" fill="#29235c">first_name &#160;&#160;&#160;</text>
<text text-anchor="start" x="285.84" y="-932.16" font-family="Helvetica,sans-Serif" font-style="italic" font-size="32.00" fill="#29235c">varchar(255)</text>
<text text-anchor="start" x="467.18" y="-932.16" font-family="Helvetica,sans-Serif" font-size="32.00" fill="#29235c"> </text>
<text text-anchor="start" x="476.08" y="-932.16" font-family="Helvetica,sans-Serif" font-weight="bold" font-size="32.00" fill="#29235c">(!)</text>
<polygon fill="#e7e2dd" stroke="transparent" points="91.06,-850.96 91.06,-910.96 517.06,-910.96 517.06,-850.96 91.06,-850.96"/>
<polygon fill="none" stroke="#29235c" points="91.06,-850.96 91.06,-910.96 517.06,-910.96 517.06,-850.96 91.06,-850.96"/>
<text text-anchor="start" x="102.06" y="-871.16" font-family="Helvetica,sans-Serif" font-size="32.00" fill="#29235c">last_name &#160;&#160;&#160;</text>
<text text-anchor="start" x="285.84" y="-872.16" font-family="Helvetica,sans-Serif" font-style="italic" font-size="32.00" fill="#29235c">varchar(255)</text>
<text text-anchor="start" x="467.18" y="-872.16" font-family="Helvetica,sans-Serif" font-size="32.00" fill="#29235c"> </text>
<text text-anchor="start" x="476.08" y="-872.16" font-family="Helvetica,sans-Serif" font-weight="bold" font-size="32.00" fill="#29235c">(!)</text>
<polygon fill="#e7e2dd" stroke="transparent" points="91.06,-790.96 91.06,-850.96 517.06,-850.96 517.06,-790.96 91.06,-790.96"/>
<polygon fill="none" stroke="#29235c" points="91.06,-790.96 91.06,-850.96 517.06,-850.96 517.06,-790.96 91.06,-790.96"/>
<text text-anchor="start" x="102.06" y="-811.16" font-family="Helvetica,sans-Serif" font-size="32.00" fill="#29235c">patronym &#160;&#160;&#160;</text>
<text text-anchor="start" x="324.71" y="-812.16" font-family="Helvetica,sans-Serif" font-style="italic" font-size="32.00" fill="#29235c">varchar(255)</text>
<polygon fill="#e7e2dd" stroke="transparent" points="91.06,-730.96 91.06,-790.96 517.06,-790.96 517.06,-730.96 91.06,-730.96"/>
<polygon fill="none" stroke="#29235c" points="91.06,-730.96 91.06,-790.96 517.06,-790.96 517.06,-730.96 91.06,-730.96"/>
<text text-anchor="start" x="102.06" y="-751.16" font-family="Helvetica,sans-Serif" font-size="32.00" fill="#29235c">age &#160;&#160;&#160;</text>
<text text-anchor="start" x="408.25" y="-752.16" font-family="Helvetica,sans-Serif" font-style="italic" font-size="32.00" fill="#29235c">integer</text>
<polygon fill="none" stroke="#29235c" stroke-width="2" points="90.06,-729.96 90.06,-1091.96 518.06,-1091.96 518.06,-729.96 90.06,-729.96"/>
</g>
<!-- doctors&#45;&gt;slots -->
<!-- doctors&#45;&gt;slots -->
<g id="edge4" class="edge">
<title>doctors:e&#45;&gt;slots:w</title>
<path fill="none" stroke="#29235c" stroke-width="3" d="M518.06,-1000.96C661.59,-1000.96 572.59,-747.79 704.77,-735.43"/>
<polygon fill="#29235c" stroke="#29235c" stroke-width="3" points="705.28,-738.91 715.11,-734.96 704.97,-731.92 705.28,-738.91"/>
<text text-anchor="middle" x="708.89" y="-744.56" font-family="Helvetica,sans-Serif" font-size="32.00" fill="#29235c">*</text>
<text text-anchor="middle" x="509.16" y="-1010.56" font-family="Helvetica,sans-Serif" font-size="32.00" fill="#29235c">1</text>
</g>
<!-- slots&#45;&gt;slot_status -->
<g id="edge7" class="edge">
<title>slots:e&#45;&gt;slot_status:w</title>
<path fill="none" stroke="#29235c" stroke-width="3" d="M1051.11,-434.96C1195.52,-434.96 1215.85,-334.96 1360.26,-334.96"/>
</g>
<!-- cancellations -->
<g id="cancellations" class="node">
<title>cancellations</title>
<ellipse fill="none" stroke="black" stroke-width="0" cx="1510.26" cy="-704.96" rx="352.28" ry="257.27"/>
<polygon fill="#1d71b8" stroke="transparent" points="1263.26,-824.96 1263.26,-884.96 1757.26,-884.96 1757.26,-824.96 1263.26,-824.96"/>
<polygon fill="none" stroke="#29235c" points="1263.26,-824.96 1263.26,-884.96 1757.26,-884.96 1757.26,-824.96 1263.26,-824.96"/>
<text text-anchor="start" x="1355.54" y="-846.16" font-family="Helvetica,sans-Serif" font-weight="bold" font-size="32.00" fill="#ffffff"> &#160;&#160;&#160;&#160;&#160;&#160;cancellations &#160;&#160;&#160;&#160;&#160;&#160;</text>
<polygon fill="#e7e2dd" stroke="transparent" points="1263.26,-764.96 1263.26,-824.96 1757.26,-824.96 1757.26,-764.96 1263.26,-764.96"/>
<polygon fill="none" stroke="#29235c" points="1263.26,-764.96 1263.26,-824.96 1757.26,-824.96 1757.26,-764.96 1263.26,-764.96"/>
<text text-anchor="start" x="1274.26" y="-786.16" font-family="Helvetica,sans-Serif" font-weight="bold" font-size="32.00" fill="#29235c">id</text>
<text text-anchor="start" x="1299.14" y="-786.16" font-family="Helvetica,sans-Serif" font-size="32.00" fill="#29235c"> &#160;&#160;&#160;</text>
<text text-anchor="start" x="1648.45" y="-786.16" font-family="Helvetica,sans-Serif" font-style="italic" font-size="32.00" fill="#29235c">integer</text>
<polygon fill="#e7e2dd" stroke="transparent" points="1263.26,-704.96 1263.26,-764.96 1757.26,-764.96 1757.26,-704.96 1263.26,-704.96"/>
<polygon fill="none" stroke="#29235c" points="1263.26,-704.96 1263.26,-764.96 1757.26,-764.96 1757.26,-704.96 1263.26,-704.96"/>
<text text-anchor="start" x="1274.26" y="-725.16" font-family="Helvetica,sans-Serif" font-size="32.00" fill="#29235c">slot_id &#160;&#160;&#160;</text>
<text text-anchor="start" x="1609.36" y="-726.16" font-family="Helvetica,sans-Serif" font-style="italic" font-size="32.00" fill="#29235c">integer</text>
<text text-anchor="start" x="1707.16" y="-726.16" font-family="Helvetica,sans-Serif" font-size="32.00" fill="#29235c"> </text>
<text text-anchor="start" x="1716.06" y="-726.16" font-family="Helvetica,sans-Serif" font-weight="bold" font-size="32.00" fill="#29235c">(!)</text>
<polygon fill="#e7e2dd" stroke="transparent" points="1263.26,-644.96 1263.26,-704.96 1757.26,-704.96 1757.26,-644.96 1263.26,-644.96"/>
<polygon fill="none" stroke="#29235c" points="1263.26,-644.96 1263.26,-704.96 1757.26,-704.96 1757.26,-644.96 1263.26,-644.96"/>
<text text-anchor="start" x="1274.26" y="-665.16" font-family="Helvetica,sans-Serif" font-size="32.00" fill="#29235c">reason &#160;&#160;&#160;</text>
<text text-anchor="start" x="1422.64" y="-666.16" font-family="Helvetica,sans-Serif" font-style="italic" font-size="32.00" fill="#29235c">cancellation_reason</text>
<text text-anchor="start" x="1707.16" y="-666.16" font-family="Helvetica,sans-Serif" font-size="32.00" fill="#29235c"> </text>
<text text-anchor="start" x="1716.06" y="-666.16" font-family="Helvetica,sans-Serif" font-weight="bold" font-size="32.00" fill="#29235c">(!)</text>
<polygon fill="#e7e2dd" stroke="transparent" points="1263.26,-584.96 1263.26,-644.96 1757.26,-644.96 1757.26,-584.96 1263.26,-584.96"/>
<polygon fill="none" stroke="#29235c" points="1263.26,-584.96 1263.26,-644.96 1757.26,-644.96 1757.26,-584.96 1263.26,-584.96"/>
<text text-anchor="start" x="1273.84" y="-605.16" font-family="Helvetica,sans-Serif" font-size="32.00" fill="#29235c">doctor_comment &#160;&#160;&#160;</text>
<text text-anchor="start" x="1547.19" y="-606.16" font-family="Helvetica,sans-Serif" font-style="italic" font-size="32.00" fill="#29235c">varchar(4096)</text>
<polygon fill="#e7e2dd" stroke="transparent" points="1263.26,-524.96 1263.26,-584.96 1757.26,-584.96 1757.26,-524.96 1263.26,-524.96"/>
<polygon fill="none" stroke="#29235c" points="1263.26,-524.96 1263.26,-584.96 1757.26,-584.96 1757.26,-524.96 1263.26,-524.96"/>
<text text-anchor="start" x="1274.26" y="-545.16" font-family="Helvetica,sans-Serif" font-size="32.00" fill="#29235c">client_comment &#160;&#160;&#160;</text>
<text text-anchor="start" x="1547.12" y="-546.16" font-family="Helvetica,sans-Serif" font-style="italic" font-size="32.00" fill="#29235c">varchar(4096)</text>
<polygon fill="none" stroke="#29235c" stroke-width="2" points="1262.26,-523.96 1262.26,-885.96 1758.26,-885.96 1758.26,-523.96 1262.26,-523.96"/>
</g>
<!-- slots&#45;&gt;cancellations -->
<!-- slots&#45;&gt;cancellations -->
<g id="edge2" class="edge">
<title>slots:e&#45;&gt;cancellations:w</title>
<path fill="none" stroke="#29235c" stroke-width="3" d="M1051.11,-794.96C1145.14,-794.96 1163.43,-739.22 1251.99,-735.19"/>
<polygon fill="#29235c" stroke="#29235c" stroke-width="3" points="1252.34,-738.68 1262.26,-734.96 1252.18,-731.68 1252.34,-738.68"/>
<text text-anchor="middle" x="1253.36" y="-744.56" font-family="Helvetica,sans-Serif" font-size="32.00" fill="#29235c">1</text>
<text text-anchor="middle" x="1042.22" y="-804.56" font-family="Helvetica,sans-Serif" font-size="32.00" fill="#29235c">1</text>
</g>
<!-- cancellations&#45;&gt;cancellation_reason -->
<g id="edge8" class="edge">
<title>cancellations:e&#45;&gt;cancellation_reason:w</title>
<path fill="none" stroke="#29235c" stroke-width="3" d="M1758.26,-674.96C1861.25,-674.96 1886.99,-674.96 1989.99,-674.96"/>
</g>
</g>
</svg>
